<mxfile host="app.diagrams.net" modified="2023-09-05T08:43:14.799Z" agent="Mozilla/5.0 (Windows NT 10.0; Win64; x64) AppleWebKit/537.36 (KHTML, like Gecko) Chrome/116.0.0.0 Safari/537.36" etag="CILlZOc6ByLMKh8SJfgJ" version="21.7.2" type="github">
  <diagram name="Страница — 1" id="i_0f-ELRC_t8fX2p_M9A">
    <mxGraphModel dx="1122" dy="499" grid="1" gridSize="10" guides="1" tooltips="1" connect="1" arrows="1" fold="1" page="1" pageScale="1" pageWidth="827" pageHeight="1169" math="0" shadow="0">
      <root>
        <mxCell id="0" />
        <mxCell id="1" parent="0" />
        <mxCell id="gJ-KW56y5MVPL-2DnHqB-13" style="edgeStyle=orthogonalEdgeStyle;rounded=0;orthogonalLoop=1;jettySize=auto;html=1;exitX=1;exitY=1;exitDx=0;exitDy=0;entryX=0.5;entryY=0;entryDx=0;entryDy=0;" edge="1" parent="1" source="gJ-KW56y5MVPL-2DnHqB-1" target="gJ-KW56y5MVPL-2DnHqB-5">
          <mxGeometry relative="1" as="geometry" />
        </mxCell>
        <mxCell id="gJ-KW56y5MVPL-2DnHqB-1" value="Директор" style="rounded=0;whiteSpace=wrap;html=1;" vertex="1" parent="1">
          <mxGeometry x="450" y="80" width="120" height="60" as="geometry" />
        </mxCell>
        <mxCell id="gJ-KW56y5MVPL-2DnHqB-2" value="Агент компании" style="rounded=0;whiteSpace=wrap;html=1;" vertex="1" parent="1">
          <mxGeometry x="745" y="290" width="120" height="60" as="geometry" />
        </mxCell>
        <mxCell id="gJ-KW56y5MVPL-2DnHqB-3" value="Клиент" style="rounded=0;whiteSpace=wrap;html=1;" vertex="1" parent="1">
          <mxGeometry x="898" y="380" width="90" height="40" as="geometry" />
        </mxCell>
        <mxCell id="gJ-KW56y5MVPL-2DnHqB-4" value="" style="endArrow=classic;startArrow=classic;html=1;rounded=0;exitX=1;exitY=1;exitDx=0;exitDy=0;entryX=0.416;entryY=-0.09;entryDx=0;entryDy=0;entryPerimeter=0;" edge="1" parent="1" source="gJ-KW56y5MVPL-2DnHqB-2" target="gJ-KW56y5MVPL-2DnHqB-3">
          <mxGeometry width="50" height="50" relative="1" as="geometry">
            <mxPoint x="675" y="350" as="sourcePoint" />
            <mxPoint x="725" y="300" as="targetPoint" />
          </mxGeometry>
        </mxCell>
        <mxCell id="gJ-KW56y5MVPL-2DnHqB-5" value="Организатор торжества" style="rounded=0;whiteSpace=wrap;html=1;" vertex="1" parent="1">
          <mxGeometry x="630" y="180" width="130" height="50" as="geometry" />
        </mxCell>
        <mxCell id="gJ-KW56y5MVPL-2DnHqB-8" value="" style="endArrow=classic;startArrow=classic;html=1;rounded=0;exitX=0;exitY=0;exitDx=0;exitDy=0;entryX=0.5;entryY=1;entryDx=0;entryDy=0;" edge="1" parent="1" source="gJ-KW56y5MVPL-2DnHqB-2" target="gJ-KW56y5MVPL-2DnHqB-5">
          <mxGeometry width="50" height="50" relative="1" as="geometry">
            <mxPoint x="675" y="350" as="sourcePoint" />
            <mxPoint x="670" y="240" as="targetPoint" />
          </mxGeometry>
        </mxCell>
        <mxCell id="gJ-KW56y5MVPL-2DnHqB-14" value="Бухгалтер" style="rounded=0;whiteSpace=wrap;html=1;" vertex="1" parent="1">
          <mxGeometry x="580" y="270" width="120" height="60" as="geometry" />
        </mxCell>
        <mxCell id="gJ-KW56y5MVPL-2DnHqB-17" value="" style="endArrow=classic;startArrow=classic;html=1;rounded=0;entryX=0.5;entryY=1;entryDx=0;entryDy=0;exitX=0.25;exitY=0;exitDx=0;exitDy=0;" edge="1" parent="1" source="gJ-KW56y5MVPL-2DnHqB-14" target="gJ-KW56y5MVPL-2DnHqB-1">
          <mxGeometry width="50" height="50" relative="1" as="geometry">
            <mxPoint x="550" y="250" as="sourcePoint" />
            <mxPoint x="520" y="250" as="targetPoint" />
          </mxGeometry>
        </mxCell>
      </root>
    </mxGraphModel>
  </diagram>
</mxfile>
